<svg xmlns="http://www.w3.org/2000/svg" xmlns:xlink="http://www.w3.org/1999/xlink" aria-hidden="true" role="img" width="1em" height="1em" viewBox="0 0 24 24" style="outline: none;" class="iconify iconify--ri">
	<path fill="currentColor" d="M13 7.22L9.603 10H6v4h3.603L13 16.78zM8.889 16H5a1 1 0 0 1-1-1V9a1 1 0 0 1 1-1h3.889l5.294-4.332a.5.5 0 0 1 .817.387v15.89a.5.5 0 0 1-.817.387zm9.974.591l-1.422-1.422A4 4 0 0 0 19 12c0-1.43-.75-2.685-1.88-3.392l1.439-1.439A5.99 5.99 0 0 1 21 12c0 1.842-.83 3.49-2.137 4.591"></path>
</svg>